<svg width="20" height="16" viewBox="0 0 20 16" fill="none" xmlns="http://www.w3.org/2000/svg">
<path d="M11.133 0.426356C11.4009 0.15336 11.7642 0 12.143 0C12.5219 0 12.8852 0.15336 13.1531 0.426356L19.5817 6.97926C19.8495 7.25234 20 7.62266 20 8.00879C20 8.39492 19.8495 8.76525 19.5817 9.03833L13.1531 15.5912C12.8836 15.8565 12.5228 16.0033 12.1482 15.9999C11.7736 15.9966 11.4153 15.8435 11.1504 15.5735C10.8856 15.3035 10.7353 14.9383 10.7321 14.5565C10.7288 14.1746 10.8728 13.8068 11.133 13.5322L15.0002 9.46499H1.42859C1.04971 9.46499 0.686338 9.31157 0.418425 9.03848C0.150512 8.76539 0 8.395 0 8.00879C0 7.62258 0.150512 7.25219 0.418425 6.9791C0.686338 6.70601 1.04971 6.55259 1.42859 6.55259H15.0002L11.133 2.48542C10.8652 2.21235 10.7148 1.84202 10.7148 1.45589C10.7148 1.06976 10.8652 0.699434 11.133 0.426356Z" fill="#FF5E00"/>
</svg>
