<svg width="32" height="32" viewBox="0 0 32 32" fill="none" xmlns="http://www.w3.org/2000/svg">
<path fill-rule="evenodd" clip-rule="evenodd" d="M22.7879 10.1818C23.3022 10.1818 23.7955 9.87533 24.1592 9.32977C24.5229 8.7842 24.7273 8.04427 24.7273 7.27273C24.7273 6.50119 24.5229 5.76125 24.1592 5.21569C23.7955 4.67013 23.3022 4.36364 22.7879 4.36364C22.2735 4.36364 21.7802 4.67013 21.4165 5.21569C21.0528 5.76125 20.8485 6.50119 20.8485 7.27273C20.8485 8.04427 21.0528 8.7842 21.4165 9.32977C21.7802 9.87533 22.2735 10.1818 22.7879 10.1818ZM22.7879 14.5455C24.0738 14.5455 25.307 13.7792 26.2163 12.4153C27.1255 11.0514 27.6364 9.20157 27.6364 7.27273C27.6364 5.34388 27.1255 3.49403 26.2163 2.13013C25.307 0.766232 24.0738 0 22.7879 0C21.502 0 20.2687 0.766232 19.3595 2.13013C18.4502 3.49403 17.9394 5.34388 17.9394 7.27273C17.9394 9.20157 18.4502 11.0514 19.3595 12.4153C20.2687 13.7792 21.502 14.5455 22.7879 14.5455ZM18.4242 32V26.1818C18.4242 24.0601 17.8623 22.0253 16.8621 20.525C15.8619 19.0247 14.5054 18.1818 13.0909 18.1818H5.33333C3.91885 18.1818 2.56229 19.0247 1.5621 20.525C0.561903 22.0253 0 24.0601 0 26.1818V32H2.90909V26.1818C2.90909 24.1745 3.99515 22.5455 5.33333 22.5455H13.0909C14.4291 22.5455 15.5152 24.1745 15.5152 26.1818V32H18.4242ZM32 26.1818V32H29.0909V26.1818C29.0909 24.1745 28.0048 22.5455 26.6667 22.5455H21.8182V18.1818H26.6667C28.0812 18.1818 29.4377 19.0247 30.4379 20.525C31.4381 22.0253 32 24.0601 32 26.1818ZM11.1515 7.27273C11.1515 8.04427 10.9472 8.7842 10.5835 9.32977C10.2198 9.87533 9.72648 10.1818 9.21212 10.1818C8.69776 10.1818 8.20447 9.87533 7.84076 9.32977C7.47706 8.7842 7.27273 8.04427 7.27273 7.27273C7.27273 6.50119 7.47706 5.76125 7.84076 5.21569C8.20447 4.67013 8.69776 4.36364 9.21212 4.36364C9.72648 4.36364 10.2198 4.67013 10.5835 5.21569C10.9472 5.76125 11.1515 6.50119 11.1515 7.27273ZM14.0606 7.27273C14.0606 9.20157 13.5498 11.0514 12.6405 12.4153C11.7313 13.7792 10.498 14.5455 9.21212 14.5455C7.92622 14.5455 6.69299 13.7792 5.78372 12.4153C4.87446 11.0514 4.36364 9.20157 4.36364 7.27273C4.36364 5.34388 4.87446 3.49403 5.78372 2.13013C6.69299 0.766232 7.92622 0 9.21212 0C10.498 0 11.7313 0.766232 12.6405 2.13013C13.5498 3.49403 14.0606 5.34388 14.0606 7.27273Z" fill="#FF5E00"/>
</svg>
