<svg width="25" height="25" viewBox="0 0 25 25" fill="none" xmlns="http://www.w3.org/2000/svg">
<path d="M1.04838 22.313L0.999983 3.51016C0.998304 2.85786 1.25582 2.23161 1.71588 1.76917C2.17593 1.30674 2.80085 1.04601 3.45315 1.04433L20.6696 1.00001C21.3219 0.998333 21.9482 1.25585 22.4106 1.71591C22.873 2.17596 23.1338 2.80088 23.1354 3.45318L23.1671 15.7507C23.1688 16.403 22.9113 17.0292 22.4512 17.4916C21.9912 17.9541 21.3662 18.2148 20.7139 18.2165L7.13875 18.2514C6.77011 18.2524 6.40641 18.3363 6.07455 18.4968C5.74268 18.6573 5.45114 18.8903 5.22149 19.1787L2.36417 22.7695C2.26908 22.8893 2.13911 22.9766 1.99224 23.0193C1.84537 23.0621 1.68886 23.0581 1.54436 23.0079C1.39986 22.9578 1.27451 22.864 1.18566 22.7395C1.0968 22.615 1.04883 22.466 1.04838 22.313Z" stroke="white" stroke-width="2"/>
</svg>
