<svg width="32" height="22" viewBox="0 0 32 22" fill="none" xmlns="http://www.w3.org/2000/svg">
<path d="M31.872 1.13612C31.7097 0.68836 31.3991 0.332543 31.0083 0.146596C30.816 0.0526993 30.6095 0.00289524 30.4005 0H22.4028C21.9786 0 21.5717 0.193061 21.2717 0.536712C20.9718 0.880363 20.8032 1.34645 20.8032 1.83245C20.8032 2.31844 20.9718 2.78453 21.2717 3.12818C21.5717 3.47183 21.9786 3.6649 22.4028 3.6649H26.5456L17.6042 13.9083L12.3417 7.8612C12.193 7.68945 12.0161 7.55313 11.8212 7.46009C11.6263 7.36706 11.4172 7.31917 11.206 7.31917C10.9949 7.31917 10.7858 7.36706 10.5909 7.46009C10.396 7.55313 10.2191 7.68945 10.0704 7.8612L0.47314 18.8559C0.323218 19.0262 0.204222 19.2289 0.123015 19.4522C0.0418091 19.6755 0 19.915 0 20.1569C0 20.3988 0.0418091 20.6383 0.123015 20.8616C0.204222 21.0849 0.323218 21.2876 0.47314 21.458C0.621838 21.6297 0.798749 21.766 0.993667 21.8591C1.18859 21.9521 1.39765 22 1.60881 22C1.81997 22 2.02904 21.9521 2.22396 21.8591C2.41887 21.766 2.59578 21.6297 2.74448 21.458L11.206 11.746L16.4685 17.7931C16.6172 17.9648 16.7941 18.1011 16.989 18.1942C17.1839 18.2872 17.393 18.3351 17.6042 18.3351C17.8153 18.3351 18.0244 18.2872 18.2193 18.1942C18.4142 18.1011 18.5911 17.9648 18.7398 17.7931L28.8009 6.24865V10.9947C28.8009 11.4807 28.9694 11.9468 29.2694 12.2904C29.5694 12.6341 29.9762 12.8271 30.4005 12.8271C30.8247 12.8271 31.2315 12.6341 31.5315 12.2904C31.8315 11.9468 32 11.4807 32 10.9947V1.83245C31.9975 1.59299 31.954 1.35642 31.872 1.13612Z" fill="#FF5E00"/>
</svg>
