<svg width="28" height="32" viewBox="0 0 28 32" fill="none" xmlns="http://www.w3.org/2000/svg">
<path d="M7.63636 24C7.29882 24 6.97509 24.1204 6.73641 24.3347C6.49773 24.5491 6.36364 24.8398 6.36364 25.1429C6.36364 25.446 6.49773 25.7367 6.73641 25.951C6.97509 26.1653 7.29882 26.2857 7.63636 26.2857H20.3636C20.7012 26.2857 21.0249 26.1653 21.2636 25.951C21.5023 25.7367 21.6364 25.446 21.6364 25.1429C21.6364 24.8398 21.5023 24.5491 21.2636 24.3347C21.0249 24.1204 20.7012 24 20.3636 24H7.63636ZM6.36364 20.5714C6.36364 20.2683 6.49773 19.9776 6.73641 19.7633C6.97509 19.549 7.29882 19.4286 7.63636 19.4286H20.3636C20.7012 19.4286 21.0249 19.549 21.2636 19.7633C21.5023 19.9776 21.6364 20.2683 21.6364 20.5714C21.6364 20.8745 21.5023 21.1652 21.2636 21.3796C21.0249 21.5939 20.7012 21.7143 20.3636 21.7143H7.63636C7.29882 21.7143 6.97509 21.5939 6.73641 21.3796C6.49773 21.1652 6.36364 20.8745 6.36364 20.5714ZM7.63636 14.8571C7.29882 14.8571 6.97509 14.9776 6.73641 15.1919C6.49773 15.4062 6.36364 15.6969 6.36364 16C6.36364 16.3031 6.49773 16.5938 6.73641 16.8081C6.97509 17.0225 7.29882 17.1429 7.63636 17.1429H20.3636C20.7012 17.1429 21.0249 17.0225 21.2636 16.8081C21.5023 16.5938 21.6364 16.3031 21.6364 16C21.6364 15.6969 21.5023 15.4062 21.2636 15.1919C21.0249 14.9776 20.7012 14.8571 20.3636 14.8571H7.63636ZM0 3.42857C0 2.51926 0.402272 1.64719 1.11832 1.00421C1.83437 0.361224 2.80554 0 3.81818 0H16.7644C17.7765 0.000497164 18.747 0.361825 19.4625 1.00457L26.8825 7.66514C27.5982 8.30816 28.0001 9.18007 28 10.0891V28.5714C28 29.4807 27.5977 30.3528 26.8817 30.9958C26.1656 31.6388 25.1945 32 24.1818 32H3.81818C2.80554 32 1.83437 31.6388 1.11832 30.9958C0.402272 30.3528 0 29.4807 0 28.5714V3.42857ZM3.81818 2.28571C3.48063 2.28571 3.15691 2.40612 2.91823 2.62045C2.67955 2.83478 2.54545 3.12547 2.54545 3.42857V28.5714C2.54545 28.8745 2.67955 29.1652 2.91823 29.3796C3.15691 29.5939 3.48063 29.7143 3.81818 29.7143H24.1818C24.5194 29.7143 24.8431 29.5939 25.0818 29.3796C25.3205 29.1652 25.4545 28.8745 25.4545 28.5714V11.4286H19.0909C18.0783 11.4286 17.1071 11.0673 16.391 10.4244C15.675 9.78139 15.2727 8.90931 15.2727 8V2.28571H3.81818ZM19.0909 9.14286H24.9276L17.8182 2.75886V8C17.8182 8.30311 17.9523 8.59379 18.191 8.80812C18.4296 9.02245 18.7534 9.14286 19.0909 9.14286Z" fill="#FF5E00"/>
</svg>
